<?xml version="1.0" encoding="UTF-8" standalone="no"?>
<!-- Created with Inkscape (http://www.inkscape.org/) -->

<svg
   xmlns:dc="http://purl.org/dc/elements/1.1/"
   xmlns:cc="http://creativecommons.org/ns#"
   xmlns:rdf="http://www.w3.org/1999/02/22-rdf-syntax-ns#"
   xmlns:svg="http://www.w3.org/2000/svg"
   xmlns="http://www.w3.org/2000/svg"
   xmlns:xlink="http://www.w3.org/1999/xlink"
   xmlns:sodipodi="http://sodipodi.sourceforge.net/DTD/sodipodi-0.dtd"
   xmlns:inkscape="http://www.inkscape.org/namespaces/inkscape"
   width="354.4389"
   height="211.584"
   viewBox="0 0 35.44389 21.158401"
   version="1.1"
   id="svg8"
   inkscape:version="0.92.4 5da689c313, 2019-01-14"
   sodipodi:docname="logo.svg">
  <defs
     id="defs2">
    <linearGradient
       inkscape:collect="always"
       id="linearGradient844">
      <stop
         id="stop842"
         offset="0"
         style="stop-color:#000000;stop-opacity:0;" />
      <stop
         id="stop840"
         offset="1"
         style="stop-color:#000000;stop-opacity:1;" />
    </linearGradient>
    <linearGradient
       inkscape:collect="always"
       xlink:href="#linearGradient844"
       id="linearGradient846"
       x1="88.635414"
       y1="128.5"
       x2="104.51041"
       y2="109.97917"
       gradientUnits="userSpaceOnUse" />
  </defs>
  <sodipodi:namedview
     id="base"
     pagecolor="#ffffff"
     bordercolor="#666666"
     borderopacity="1.0"
     inkscape:pageopacity="0.0"
     inkscape:pageshadow="2"
     inkscape:zoom="2.8"
     inkscape:cx="225.98307"
     inkscape:cy="91.584922"
     inkscape:document-units="px"
     inkscape:current-layer="layer1"
     showgrid="true"
     inkscape:window-width="1920"
     inkscape:window-height="1015"
     inkscape:window-x="0"
     inkscape:window-y="0"
     inkscape:window-maximized="1"
     fit-margin-top="0"
     fit-margin-left="0"
     fit-margin-right="0"
     fit-margin-bottom="0"
     units="px"
     scale-x="0.1">
    <inkscape:grid
       type="xygrid"
       id="grid815"
       originx="-52.395273"
       originy="-40.838477" />
  </sodipodi:namedview>
  <metadata
     id="metadata5">
    <rdf:RDF>
      <cc:Work
         rdf:about="">
        <dc:format>image/svg+xml</dc:format>
        <dc:type
           rdf:resource="http://purl.org/dc/dcmitype/StillImage" />
        <dc:title />
      </cc:Work>
    </rdf:RDF>
  </metadata>
  <g
     inkscape:label="Layer 1"
     inkscape:groupmode="layer"
     id="layer1"
     transform="translate(-69.314578,-109.9833)">
    <g
       aria-label="4"
       style="font-style:italic;font-variant:normal;font-weight:bold;font-stretch:normal;font-size:25.40000153px;line-height:1.25;font-family:sans-serif;-inkscape-font-specification:'sans-serif Bold Italic';letter-spacing:0px;word-spacing:0px;opacity:0.5;fill:url(#linearGradient846);fill-opacity:1;stroke:none;stroke-width:0.13229167"
       id="text819">
      <path
         d="m 99.103001,114.05127 -6.585645,7.61504 h 5.084961 z m -0.124024,-4.06797 h 5.432223 l -2.29443,11.68301 h 2.6417 l -0.65732,3.46025 h -2.6417 L 100.80212,128.5 h -4.526854 l 0.669727,-3.37344 h -8.334376 l 0.806152,-4.09277 z"
         style="fill:url(#linearGradient846);fill-opacity:1;stroke-width:0.13229167"
         id="path23" />
    </g>
    <g
       aria-label="mp3"
       style="font-style:italic;font-variant:normal;font-weight:bold;font-stretch:normal;font-size:12.70000076px;line-height:1.25;font-family:sans-serif;-inkscape-font-specification:'sans-serif Bold Italic';letter-spacing:0px;word-spacing:0px;opacity:0.5;fill:#000000;fill-opacity:1;stroke:none;stroke-width:0.13229167"
       id="text824">
      <path
         d="m 76.88621,122.70811 q 0.514697,-0.63873 1.16582,-0.97979 0.657324,-0.34106 1.364258,-0.34106 0.930176,0 1.463477,0.51469 0.539501,0.5085 0.539501,1.40147 0,0.18603 -0.031,0.42788 -0.02481,0.23564 -0.08062,0.5395 L 80.482889,128.5 h -2.238623 l 0.700733,-3.62148 0.0186,-0.093 q 0.161231,-0.76895 0.161231,-0.98599 0,-0.34106 -0.198438,-0.5395 -0.192236,-0.19844 -0.527099,-0.19844 -0.638721,0 -1.085206,0.5271 -0.440283,0.5209 -0.632519,1.49448 L 76.011844,128.5 h -2.238623 l 0.713135,-3.62148 q 0.09302,-0.46509 0.130225,-0.70074 0.03721,-0.24184 0.03721,-0.37827 0,-0.34726 -0.192237,-0.5395 -0.192236,-0.19844 -0.533301,-0.19844 -0.613916,0 -1.079004,0.54571 -0.458886,0.5395 -0.63872,1.47587 L 71.540799,128.5 h -2.226221 l 1.351856,-6.94531 h 2.232422 l -0.204639,1.01699 q 0.520899,-0.58911 1.11001,-0.88677 0.589111,-0.29765 1.227832,-0.29765 0.719336,0 1.234033,0.37207 0.514698,0.36586 0.620118,0.94878 z"
         style="stroke-width:0.13229167"
         id="path16" />
      <path
         d="m 84.978739,127.49541 -0.713135,3.64629 h -2.232422 l 1.866553,-9.58701 h 2.232422 l -0.204639,1.01699 q 0.508496,-0.60772 1.066602,-0.89297 0.558105,-0.29145 1.221631,-0.29145 1.172021,0 1.85415,0.74414 0.682129,0.74414 0.682129,2.02778 0,0.79995 -0.241845,1.55649 -0.235645,0.75655 -0.682129,1.37666 -0.564307,0.78135 -1.277442,1.18443 -0.706933,0.40307 -1.519287,0.40307 -0.713135,0 -1.21543,-0.28525 -0.496094,-0.29146 -0.837158,-0.89917 z m 2.331641,-4.49585 q -0.855762,0 -1.401465,0.79375 -0.539502,0.78755 -0.539502,2.05259 0,0.57051 0.303857,0.89917 0.310059,0.32246 0.855762,0.32246 0.837158,0 1.382861,-0.77515 0.545704,-0.78135 0.545704,-1.99677 0,-0.63252 -0.297657,-0.96119 -0.291455,-0.33486 -0.84956,-0.33486 z"
         style="stroke-width:0.13229167"
         id="path18" />
      <path
         d="m 97.244657,123.50806 q 0.700732,0.16123 1.091406,0.65112 0.390674,0.48989 0.390674,1.20303 0,1.53789 -1.221631,2.43086 -1.21543,0.88676 -3.348633,0.88676 -0.806152,0 -1.537891,-0.11782 -0.725537,-0.11162 -1.370459,-0.34106 l 0.353467,-1.84175 q 0.551904,0.32246 1.203027,0.50229 0.651123,0.17364 1.302247,0.17364 1.047998,0 1.655713,-0.39068 0.613916,-0.39687 0.613916,-1.0604 0,-0.5519 -0.465088,-0.82475 -0.465088,-0.27906 -1.401465,-0.27906 h -0.94878 l 0.303858,-1.53789 h 1.00459 q 0.973584,0 1.53789,-0.35346 0.570508,-0.35347 0.570508,-0.95498 0,-0.47129 -0.396875,-0.71934 -0.390674,-0.24805 -1.141015,-0.24805 -0.5271,0 -1.147217,0.13643 -0.620117,0.13642 -1.289844,0.39687 l 0.341064,-1.74873 q 0.731739,-0.19843 1.438672,-0.29765 0.713135,-0.0992 1.407666,-0.0992 1.568897,0 2.356446,0.5209 0.79375,0.5209 0.79375,1.55029 0,0.92397 -0.551904,1.54409 -0.545704,0.61392 -1.544092,0.81856 z"
         style="stroke-width:0.13229167"
         id="path20" />
    </g>
  </g>
</svg>
